<svg xmlns="http://www.w3.org/2000/svg" width="600" height="800" viewBox="0 0 600 800" role="img" aria-label="Studio portrait placeholder">
  <defs>
    <linearGradient id="bg" x1="0" y1="0" x2="0" y2="1">
      <stop offset="0%" stop-color="#3A3126"/><stop offset="100%" stop-color="#181513"/>
    </linearGradient>
    <radialGradient id="vig" cx="50%" cy="38%" r="72%">
      <stop offset="55%" stop-color="#000" stop-opacity="0"/><stop offset="100%" stop-color="#000" stop-opacity="0.55"/>
    </radialGradient>
    <linearGradient id="fig" x1="0" y1="0" x2="0" y2="1">
      <stop offset="0%" stop-color="#8D8270" stop-opacity="0.95"/><stop offset="100%" stop-color="#8D8270" stop-opacity="0.55"/>
    </linearGradient>
    <pattern id="brick" width="80" height="40" patternUnits="userSpaceOnUse">
      <rect width="80" height="40" fill="#000" opacity="0.10"/>
      <rect x="1" y="1" width="37" height="17" fill="#fff" opacity="0.030"/>
      <rect x="41" y="1" width="37" height="17" fill="#fff" opacity="0.022"/>
      <rect x="-19" y="21" width="37" height="17" fill="#fff" opacity="0.026"/>
      <rect x="21" y="21" width="37" height="17" fill="#fff" opacity="0.030"/>
      <rect x="61" y="21" width="37" height="17" fill="#fff" opacity="0.022"/>
    </pattern>
  </defs>
  <rect width="600" height="800" fill="url(#bg)"/>
  <rect width="600" height="800" fill="url(#brick)"/>
  <path d="M300 470c108 0 196 62 208 156 4 30 6 62 6 96H86c0-34 2-66 6-96 12-94 100-156 208-156z" fill="url(#fig)"/>
  <path d="M258 486l42 60 42-60 26 14-52 96h-32l-52-96z" fill="#000" opacity="0.28"/>
  <path d="M262 396h76v96c0 12-16 22-38 22s-38-10-38-22z" fill="#8D8270" opacity="0.8"/>
  <ellipse cx="300" cy="300" rx="98" ry="122" fill="#8D8270"/>
  <path d="M202 288c0-70 44-116 98-116s98 46 98 116c0 12-2 22-4 30-6-42-30-64-94-64-52 0-88 20-94 64-2-8-4-18-4-30z" fill="#000" opacity="0.42"/>
  <ellipse cx="200" cy="308" rx="14" ry="24" fill="#8D8270"/>
  <ellipse cx="400" cy="308" rx="14" ry="24" fill="#8D8270"/>
  <rect width="600" height="800" fill="url(#vig)"/>
  <text x="300" y="742" text-anchor="middle" font-family="Bebas Neue, Oswald, Impact, sans-serif"
        font-size="42" letter-spacing="10" fill="#FFFFFF" opacity="0.30">DP</text>
  <rect x="0" y="788" width="600" height="12" fill="#C1121F" opacity="0.85"/>
</svg>
